<svg width="123" height="25" xmlns="http://www.w3.org/2000/svg" preserveAspectRatio="xMidYMid meet" class="iconify iconify--noto" role="img" aria-hidden="true">
 <defs>
  <linearGradient y2="1.50086" x2="0.5" y1="0.24405" x1="0.5" id="IconifyId17ecdb2904d178eab9180">
   <stop stop-color="#424242" offset="0"/>
   <stop stop-color="#222" offset="0.305"/>
   <stop offset="0.87"/>
  </linearGradient>
  <linearGradient y2="0.99248" x2="0.49997" y1="0.00335" x1="0.49997" id="IconifyId17ecdb2904d178eab9181">
   <stop stop-color="#bdbdbd" offset="0"/>
   <stop stop-color="#919191" offset="0.559"/>
   <stop stop-color="#757575" offset="0.963"/>
  </linearGradient>
 </defs>
 <g>
  <title>Layer 1</title>
  <ellipse id="svg_1" fill="url(#IconifyId17ecdb2904d178eab9180)" ry="29.74" rx="57.07" cy="5.13446" cx="227.88344"/>
  <path id="svg_2" fill="url(#IconifyId17ecdb2904d178eab9181)" d="m115.26708,4.34418c25.01,-27.3 -28.72,-49.4 -65.53,-44.38c-41.89,3.58 -68.95,33.41 -28.93,53.74c30.38,15.44 79.32,7.93 94.46,-9.36c-0.01,0 -0.01,0 0,0c-0.01,0 -0.01,0 0,0zm-53.95,13.57c-24.1,0 -45.21,-7.87 -52.9,-18.51c13.71,-34.17 93.92,-32.23 105.8,0c-7.69,10.63 -28.8,18.51 -52.9,18.51z"/>
  <path id="svg_3" fill="#757575" d="m8.41708,-0.59582c1.8,-4.48 4.75,-8.34 8.53,-11.59l-0.67,-14.21c-8.38,4.74 -11.69,11.27 -11.69,16.54c0,4.37 3.83,9.26 3.83,9.26z"/>
  <g id="svg_4">
   <path id="svg_5" fill="#757575" d="m114.22708,-0.59582c-1.8,-4.48 -4.55,-8.4 -8.52,-11.63l0.66,-14.16c8.37,4.74 11.69,11.27 11.69,16.54c0,4.36 -3.83,9.25 -3.83,9.25z"/>
  </g>
 </g>
</svg>